<svg xmlns="http://www.w3.org/2000/svg" viewBox="0 0 534 330" role="img" aria-labelledby="t" xmlns:c2pa="http://c2pa.org/manifest"><metadata><c2pa:manifest>AAAWgmp1bWIAAAAeanVtZGMycGEAEQAQgAAAqgA4m3EDYzJwYQAAABZcanVtYgAAAEdqdW1kYzJtYQARABCAAACqADibcQN1cm46YzJwYTo1ODQ2OWMwNi01ODcyLTQ4OWEtODJhYy1kMDk2MDQxMmY1ZGUAAAADl2p1bWIAAAApanVtZGMyYXMAEQAQgAAAqgA4m3EDYzJwYS5hc3NlcnRpb25zAAAAALxqdW1iAAAARGp1bWRjYm9yABEAEIAAAKoAOJtxE2MycGEuaW5ncmVkaWVudC52MwAAAAAYYzJzaPUXpuCcoshZzMVK9b4SNIMAAABwY2JvcqNpZGM6Zm9ybWF0bWltYWdlL3N2Zyt4bWxqaW5zdGFuY2VJRHgseG1wOmlpZDo4ZGFlMDdjYy1jYmM1LTQ1NmEtYjkwNS1hYzgyM2UyZjNlMmVscmVsYXRpb25zaGlwaHBhcmVudE9mAAAB4mp1bWIAAABBanVtZGNib3IAEQAQgAAAqgA4m3ETYzJwYS5hY3Rpb25zLnYyAAAAABhjMnNo3/DwkHsP363WTEAc0AVnKAAAAZljYm9yomdhY3Rpb25zgqJmYWN0aW9ua2MycGEub3BlbmVkanBhcmFtZXRlcnOha2luZ3JlZGllbnRzgaJjdXJseC1zZWxmI2p1bWJmPWMycGEuYXNzZXJ0aW9ucy9jMnBhLmluZ3JlZGllbnQudjNkaGFzaFggiOBtTuduXTysBD/CcmsS1HFVGDm9Sse8zMCDNIo/xpukZmFjdGlvbngdY29tLmFudGhyb3BpYy5jbGF1ZGUucHJvdmlkZWRqcGFyYW1ldGVyc6F4H2NvbS5hbnRocm9waWMub3JpZ2luLWNvbmZpZGVuY2VndW5rbm93bmtkZXNjcmlwdGlvbnhmQ2xhdWRlIHByb3ZpZGVkIHRoaXMgZmlsZSBhdCB0aGUgcmVxdWVzdCBvZiBhIHVzZXIgYW5kIG1heSBoYXZlIGNyZWF0ZWQgb3IgbW9kaWZpZWQgdGhlIGZpbGUgY29udGVudHMubXNvZnR3YXJlQWdlbnShZG5hbWVmQ2xhdWRlcmFsbEFjdGlvbnNJbmNsdWRlZPUAAADIanVtYgAAAEBqdW1kY2JvcgARABCAAACqADibcRNjMnBhLmhhc2guZGF0YQAAAAAYYzJzaA4rtkb7l26LBr+fvElVcT0AAACAY2JvcqVjYWxnZnNoYTI1NmNwYWRNAAAAAAAAAAAAAAAAAGRoYXNoWCDOcE4y3AXmmpNYQkpDvuHxR6GO/nndaACTMXl6GjmSA2RuYW1lbmp1bWJmIG1hbmlmZXN0amV4Y2x1c2lvbnOBomVzdGFydBicZmxlbmd0aBkeBAAAAj5qdW1iAAAAJ2p1bWRjMmNsABEAEIAAAKoAOJtxA2MycGEuY2xhaW0udjIAAAACD2Nib3KlY2FsZ2ZzaGEyNTZpc2lnbmF0dXJleE1zZWxmI2p1bWJmPS9jMnBhL3VybjpjMnBhOjU4NDY5YzA2LTU4NzItNDg5YS04MmFjLWQwOTYwNDEyZjVkZS9jMnBhLnNpZ25hdHVyZWppbnN0YW5jZUlEeCx4bXA6aWlkOmMxNTViMWE4LWU4ODctNDIwNS04ODM3LTczZTFhM2JkODUwNnJjcmVhdGVkX2Fzc2VydGlvbnODomN1cmx4LXNlbGYjanVtYmY9YzJwYS5hc3NlcnRpb25zL2MycGEuaW5ncmVkaWVudC52M2RoYXNoWCCI4G1O525dPKwEP8JyaxLUcVUYOb1Kx7zMwIM0ij/Gm6JjdXJseCpzZWxmI2p1bWJmPWMycGEuYXNzZXJ0aW9ucy9jMnBhLmFjdGlvbnMudjJkaGFzaFgg4K3osDvhD5hC+hJ71PtyR+ACnJXEs/2fHwU5+ooepEaiY3VybHgpc2VsZiNqdW1iZj1jMnBhLmFzc2VydGlvbnMvYzJwYS5oYXNoLmRhdGFkaGFzaFgg3k6z968j372GVn8O3nNQGY+vmmHh7Ez6DL+J07MSWX90Y2xhaW1fZ2VuZXJhdG9yX2luZm+jZG5hbWVvQW50aHJvcGljIEZpbGVzZ3ZlcnNpb25lMS4wLjBrc3BlY1ZlcnNpb25lMi40LjAAABA4anVtYgAAAChqdW1kYzJjcwARABCAAACqADibcQNjMnBhLnNpZ25hdHVyZQAAABAIY2JvctKEWQISogEmGCFZAgowggIGMIIBjaADAgECAhRA5aAK7sI50L64g/oGQgU9Z1UTADAKBggqhkjOPQQDAzBJMRcwFQYDVQQKEw5BbnRocm9waWMsIFBCQzEuMCwGA1UEAxMlQW50aHJvcGljIENvbnRlbnQgQ3JlZGVudGlhbHMgUm9vdCBDQTAeFw0yNjA4MDcxODQzNTZaFw0yODA4MDYxOTQzNTZaMEQxFzAVBgNVBAoTDkFudGhyb3BpYywgUEJDMSkwJwYDVQQDEyBBbnRocm9waWMgQ2xhdWRlIENvbnRlbnQgU2lnbmluZzBZMBMGByqGSM49AgEGCCqGSM49AwEHA0IABJh6CmvLUBgFFNU0vUKlOVtE6djd17L5SuwX0LemFisBM3dkd/3cyjxFA3Qo5S46fX0/ihY0VZ7mfb9KF703t5OjWDBWMA4GA1UdDwEB/wQEAwIHgDAVBgNVHSUEDjAMBgorBgEEAYPoXgIBMAwGA1UdEwEB/wQCMAAwHwYDVR0jBBgwFoAUzlHiBIFOZFsj+OPEz5o+nMHXXMIwCgYIKoZIzj0EAwMDZwAwZAIwMXMdFJ4BetLLVY7ORuE9noqbbAZOZn/aArXyTwFAZfKrPzxF2vPoJNf1+UCdg1XGAjBwX1zd9WGqYkqmL5SFqw1QySjr1zJfpJM9+1rdDwSPLMOPOjKuiXjoU/pUUeG9RwmhY3BhZFkNngAAAAAAAAAAAAAAAAAAAAAAAAAAAAAAAAAAAAAAAAAAAAAAAAAAAAAAAAAAAAAAAAAAAAAAAAAAAAAAAAAAAAAAAAAAAAAAAAAAAAAAAAAAAAAAAAAAAAAAAAAAAAAAAAAAAAAAAAAAAAAAAAAAAAAAAAAAAAAAAAAAAAAAAAAAAAAAAAAAAAAAAAAAAAAAAAAAAAAAAAAAAAAAAAAAAAAAAAAAAAAAAAAAAAAAAAAAAAAAAAAAAAAAAAAAAAAAAAAAAAAAAAAAAAAAAAAAAAAAAAAAAAAAAAAAAAAAAAAAAAAAAAAAAAAAAAAAAAAAAAAAAAAAAAAAAAAAAAAAAAAAAAAAAAAAAAAAAAAAAAAAAAAAAAAAAAAAAAAAAAAAAAAAAAAAAAAAAAAAAAAAAAAAAAAAAAAAAAAAAAAAAAAAAAAAAAAAAAAAAAAAAAAAAAAAAAAAAAAAAAAAAAAAAAAAAAAAAAAAAAAAAAAAAAAAAAAAAAAAAAAAAAAAAAAAAAAAAAAAAAAAAAAAAAAAAAAAAAAAAAAAAAAAAAAAAAAAAAAAAAAAAAAAAAAAAAAAAAAAAAAAAAAAAAAAAAAAAAAAAAAAAAAAAAAAAAAAAAAAAAAAAAAAAAAAAAAAAAAAAAAAAAAAAAAAAAAAAAAAAAAAAAAAAAAAAAAAAAAAAAAAAAAAAAAAAAAAAAAAAAAAAAAAAAAAAAAAAAAAAAAAAAAAAAAAAAAAAAAAAAAAAAAAAAAAAAAAAAAAAAAAAAAAAAAAAAAAAAAAAAAAAAAAAAAAAAAAAAAAAAAAAAAAAAAAAAAAAAAAAAAAAAAAAAAAAAAAAAAAAAAAAAAAAAAAAAAAAAAAAAAAAAAAAAAAAAAAAAAAAAAAAAAAAAAAAAAAAAAAAAAAAAAAAAAAAAAAAAAAAAAAAAAAAAAAAAAAAAAAAAAAAAAAAAAAAAAAAAAAAAAAAAAAAAAAAAAAAAAAAAAAAAAAAAAAAAAAAAAAAAAAAAAAAAAAAAAAAAAAAAAAAAAAAAAAAAAAAAAAAAAAAAAAAAAAAAAAAAAAAAAAAAAAAAAAAAAAAAAAAAAAAAAAAAAAAAAAAAAAAAAAAAAAAAAAAAAAAAAAAAAAAAAAAAAAAAAAAAAAAAAAAAAAAAAAAAAAAAAAAAAAAAAAAAAAAAAAAAAAAAAAAAAAAAAAAAAAAAAAAAAAAAAAAAAAAAAAAAAAAAAAAAAAAAAAAAAAAAAAAAAAAAAAAAAAAAAAAAAAAAAAAAAAAAAAAAAAAAAAAAAAAAAAAAAAAAAAAAAAAAAAAAAAAAAAAAAAAAAAAAAAAAAAAAAAAAAAAAAAAAAAAAAAAAAAAAAAAAAAAAAAAAAAAAAAAAAAAAAAAAAAAAAAAAAAAAAAAAAAAAAAAAAAAAAAAAAAAAAAAAAAAAAAAAAAAAAAAAAAAAAAAAAAAAAAAAAAAAAAAAAAAAAAAAAAAAAAAAAAAAAAAAAAAAAAAAAAAAAAAAAAAAAAAAAAAAAAAAAAAAAAAAAAAAAAAAAAAAAAAAAAAAAAAAAAAAAAAAAAAAAAAAAAAAAAAAAAAAAAAAAAAAAAAAAAAAAAAAAAAAAAAAAAAAAAAAAAAAAAAAAAAAAAAAAAAAAAAAAAAAAAAAAAAAAAAAAAAAAAAAAAAAAAAAAAAAAAAAAAAAAAAAAAAAAAAAAAAAAAAAAAAAAAAAAAAAAAAAAAAAAAAAAAAAAAAAAAAAAAAAAAAAAAAAAAAAAAAAAAAAAAAAAAAAAAAAAAAAAAAAAAAAAAAAAAAAAAAAAAAAAAAAAAAAAAAAAAAAAAAAAAAAAAAAAAAAAAAAAAAAAAAAAAAAAAAAAAAAAAAAAAAAAAAAAAAAAAAAAAAAAAAAAAAAAAAAAAAAAAAAAAAAAAAAAAAAAAAAAAAAAAAAAAAAAAAAAAAAAAAAAAAAAAAAAAAAAAAAAAAAAAAAAAAAAAAAAAAAAAAAAAAAAAAAAAAAAAAAAAAAAAAAAAAAAAAAAAAAAAAAAAAAAAAAAAAAAAAAAAAAAAAAAAAAAAAAAAAAAAAAAAAAAAAAAAAAAAAAAAAAAAAAAAAAAAAAAAAAAAAAAAAAAAAAAAAAAAAAAAAAAAAAAAAAAAAAAAAAAAAAAAAAAAAAAAAAAAAAAAAAAAAAAAAAAAAAAAAAAAAAAAAAAAAAAAAAAAAAAAAAAAAAAAAAAAAAAAAAAAAAAAAAAAAAAAAAAAAAAAAAAAAAAAAAAAAAAAAAAAAAAAAAAAAAAAAAAAAAAAAAAAAAAAAAAAAAAAAAAAAAAAAAAAAAAAAAAAAAAAAAAAAAAAAAAAAAAAAAAAAAAAAAAAAAAAAAAAAAAAAAAAAAAAAAAAAAAAAAAAAAAAAAAAAAAAAAAAAAAAAAAAAAAAAAAAAAAAAAAAAAAAAAAAAAAAAAAAAAAAAAAAAAAAAAAAAAAAAAAAAAAAAAAAAAAAAAAAAAAAAAAAAAAAAAAAAAAAAAAAAAAAAAAAAAAAAAAAAAAAAAAAAAAAAAAAAAAAAAAAAAAAAAAAAAAAAAAAAAAAAAAAAAAAAAAAAAAAAAAAAAAAAAAAAAAAAAAAAAAAAAAAAAAAAAAAAAAAAAAAAAAAAAAAAAAAAAAAAAAAAAAAAAAAAAAAAAAAAAAAAAAAAAAAAAAAAAAAAAAAAAAAAAAAAAAAAAAAAAAAAAAAAAAAAAAAAAAAAAAAAAAAAAAAAAAAAAAAAAAAAAAAAAAAAAAAAAAAAAAAAAAAAAAAAAAAAAAAAAAAAAAAAAAAAAAAAAAAAAAAAAAAAAAAAAAAAAAAAAAAAAAAAAAAAAAAAAAAAAAAAAAAAAAAAAAAAAAAAAAAAAAAAAAAAAAAAAAAAAAAAAAAAAAAAAAAAAAAAAAAAAAAAAAAAAAAAAAAAAAAAAAAAAAAAAAAAAAAAAAAAAAAAAAAAAAAAAAAAAAAAAAAAAAAAAAAAAAAAAAAAAAAAAAAAAAAAAAAAAAAAAAAAAAAAAAAAAAAAAAAAAAAAAAAAAAAAAAAAAAAAAAAAAAAAAAAAAAAAAAAAAAAAAAAAAAAAAAAAAAAAAAAAAAAAAAAAAAAAAAAAAAAAAAAAAAAAAAAAAAAAAAAAAAAAAAAAAAAAAAAAAAAAAAAAAAAAAAAAAAAAAAAAAAAAAAAAAAAAAAAAAAAAAAAAAAAAAAAAAAAAAAAAAAAAAAAAAAAAAAAAAAAAAAAAAAAAAAAAAAAAAAAAAAAAAAAAAAAAAAAAAAAAAAAAAAAAAAAAAAAAAAAAAAAAAAAAAAAAAAAAAAAAAAAAAAAAAAAAAAAAAAAAAAAAAAAAAAAAAAAAAAAAAAAAAAAAAAAAAAAAAAAAAAAAAAAAAAAAAAAAAAAAAAAAAAAAAAAAAAAAAAAAAAAAAAAAAAAAAAAAAAAAAAAAAAAAAAAAAAAAAAAAAAAAAAAAAAAAAAAAAAAAAAAAAAAAAAAAAAAAAAAAAAAAAAAAAAAAAAAAAAAAAAAAAAAAAAAAAAAAAAAAAAAAAAAAAAAAAAAAAAAAAAAAAAAAAAAAAAAAAAAAAAAAAAAAAAAAAAAAAAAAAAAAAAAAAAAAAAAAAAAAAAAAAAAAAAAAAAAAAAAAAAAAAAAAAAAAAAAAAAAAAAAAAAAAAAAAAAAAAAAAAAAAAAAAAAAAAAAAAAAAAAAAAAAAAAAAAAAAAAAAAAAAAAAAAAAAAAAAAAAAAAAAAAAAAAAAAAAAAAAAAAAAAAAAAAAAAAAAAAAAAAAAAAAAAAAAAAAAAAAAAAAAAAAAAAAAAAAAAAAAAAAAAAAAAAAAAAAAAAAAAAAAAAAAAAAAAAAAAAAAAAAAAAAAAAAAAAAAAAAAAAAAAAAAAAAAAAAAAAAAAAAAAAAAAAAAAAAAAAAAAAAAAAAAAAAAAAAAAAAAAAAAAAAAAAAAAAAAAAAAAAAAAAAAAAAAAAAAAAAAAAAAAAAAAAAAAAAAAAAAAAAAAAAAAAAAAAAAAAAAAAAAAAAAAAAAAAAAAAAAAAAAAAAAAAAAAAAAAAAAAAAAAAAAAAAAAAAAAAAAAAAAAAAAAAAAAAAAAAAAAAAAAAAAAAAAAAAAAAAAAAAAAAAAAAAAAAAAAAAAAAAAAAAAAAAAAAAAAAAAAAAAAAAAAAAAAAAAAAAAAAAAAAAAAAAAAAAAAAAAAAAAAAAAAAAAAAAAAAAAAAAAAAAAAAAAAAAAAAAAAAAAAAAAAAAAAAAAAAAAAAAAAAAAAAAAAAAAAAAAAAAAAAAAAAAAAAAAAAAAAAAAAAAAAAAAAAAAAAAAAAAAAAAAAAAAAAAAAAAAAAAAAAAAAAAAAAAAAAAAAAAAAAAAAAAAAAAAAAAAAAAAAAAAAAAAAAAAAAAAAAAAAAAAAAAAAAAAAAAAAAAAAAAAAAAAAAAAAAAAAAAAAAAAAAAAAAAAAAAAAAAAAAAAAAAAAAAAAAAAAAAAAAAAAAAAAAAAAAAAAAAAAAAAAAAAAAAAAAAAAAAAAAAAAAAAAAAAAAAAAAAAAAAAAAAAAAAAAAAAAAAAAAAAAAAAAAAAAAAAAAAAAAAAAAAAAAAAAAAAAAAAAAAAAAAAAAAAAAAAAAAAAAAAAAAAAAAAAAAAAAAAAAAAAAAAAAAAAAAAAAAAPZYQJI9IUaw/E/mS5jSBji8PXUga0W83B3Vcbb2t8tJCaJtHXGDTES1jp0Fw9L0T0XTkf8/5ijnBBBqTbNOAVYL2Uw=</c2pa:manifest></metadata><title id="t">Clear View Home Inspections logo</title><rect width="534" height="330" rx="28" fill="#253291"/><g transform="translate(0.000000,330.000000) scale(0.025000,-0.025000)" fill="#ffffff" stroke="none"> <path d="M8860 11800 c-364 -16 -757 -142 -1092 -351 -347 -216 -670 -592 -809 -941 -11 -29 -30 -75 -41 -103 -135 -337 -149 -807 -35 -1185 99 -329 271 -605 538 -865 343 -333 714 -516 1244 -612 155 -28 596 -25 757 5 691 128 1235 490 1566 1043 29 48 59 90 68 93 9 3 112 6 229 6 143 0 216 4 221 11 7 12 -12 40 -173 256 -131 176 -135 184 -118 238 47 141 46 566 0 755 -138 555 -409 948 -870 1262 -432 293 -892 413 -1485 388z"/> <path d="M13965 9895 c-5 -2 -26 -6 -46 -9 -48 -8 -64 -22 -357 -294 -136 -126 -314 -291 -397 -367 -292 -270 -511 -472 -670 -620 -88 -82 -217 -202 -285 -265 -69 -63 -129 -120 -133 -128 -11 -18 -4 -26 150 -164 121 -108 136 -118 172 -118 50 0 56 4 406 326 110 101 610 555 829 753 510 461 532 485 572 628 21 77 5 133 -54 184 -52 46 -153 86 -187 74z"/> <path d="M14529 9162 c-126 -118 -227 -210 -509 -467 -84 -77 -214 -196 -289 -265 -75 -69 -212 -195 -306 -280 -93 -85 -235 -216 -315 -290 -296 -274 -606 -558 -725 -665 -142 -128 -291 -264 -534 -489 -95 -89 -231 -213 -301 -276 -69 -63 -237 -216 -371 -339 -134 -124 -318 -292 -408 -375 -91 -83 -258 -236 -371 -341 -113 -104 -280 -257 -370 -340 -90 -82 -211 -193 -268 -245 -57 -52 -139 -126 -182 -165 -221 -199 -390 -360 -387 -369 3 -8 190 -12 607 -14 425 -1 607 -5 617 -13 11 -10 13 -311 13 -1775 l0 -1764 24 -9 c35 -14 8541 -15 8566 -1 20 11 20 22 20 1773 0 1358 3 1766 12 1775 9 9 141 12 530 12 474 0 519 1 525 17 4 11 -5 26 -28 46 -69 61 -767 704 -854 787 -49 47 -135 126 -190 176 -54 49 -201 184 -326 300 -125 116 -269 248 -320 294 -85 75 -181 165 -449 415 -47 44 -110 103 -140 130 -31 28 -199 183 -375 345 -176 163 -408 377 -516 475 -107 99 -283 261 -389 360 -107 99 -255 236 -329 304 -75 68 -185 170 -246 226 -122 113 -402 372 -775 715 -134 124 -298 276 -363 338 -66 61 -127 112 -136 112 -9 0 -73 -53 -142 -118z"/> <path d="M6347 8893 c-122 -111 -282 -259 -442 -408 -88 -83 -207 -193 -265 -245 -58 -52 -179 -164 -270 -249 -91 -85 -190 -177 -220 -205 -30 -28 -111 -103 -180 -166 -69 -62 -161 -148 -205 -190 -104 -98 -580 -540 -755 -700 -75 -69 -223 -206 -329 -305 -106 -99 -225 -209 -265 -245 -63 -56 -277 -254 -706 -653 -63 -59 -188 -174 -276 -255 -89 -81 -258 -237 -376 -347 -118 -110 -289 -270 -381 -355 -92 -85 -167 -159 -167 -165 0 -16 7 -23 165 -170 83 -77 231 -216 330 -310 99 -93 331 -312 515 -485 184 -173 387 -364 450 -425 64 -60 180 -171 259 -245 79 -74 158 -148 176 -165 356 -336 475 -447 498 -465 28 -22 37 -60 15 -60 -7 0 -442 0 -966 0 -652 0 -959 -3 -972 -10 -20 -11 -20 -23 -20 -689 0 -558 2 -681 14 -690 10 -8 1047 -10 3947 -9 l3934 3 5 1500 c3 1002 2 1508 -5 1525 l-10 25 -1875 2 c-1031 2 -1881 3 -1887 3 -26 0 -12 40 26 72 21 18 105 96 188 173 82 77 293 273 468 435 176 162 358 331 405 376 366 348 480 445 504 432 22 -12 193 -164 371 -328 38 -36 123 -112 188 -170 246 -219 247 -220 373 -220 102 0 158 31 364 205 314 264 1340 1239 1340 1273 0 15 -48 60 -176 163 -50 41 -164 135 -254 209 -207 173 -196 165 -225 154 -13 -5 -224 -208 -469 -451 -257 -256 -453 -443 -464 -443 -10 0 -54 30 -97 66 -44 37 -117 96 -163 132 -63 49 -82 70 -80 85 2 13 130 138 313 308 171 158 311 295 313 306 2 14 -57 75 -210 219 -117 109 -253 237 -303 284 -49 47 -184 173 -300 280 -115 107 -286 267 -380 355 -238 223 -292 273 -445 415 -74 69 -218 204 -320 300 -102 96 -246 231 -320 299 -74 68 -140 129 -145 135 -46 48 -155 146 -164 146 -6 0 -39 -26 -74 -57z m1636 -6835 c25 -19 21 -1251 -4 -1256 -9 -2 -141 107 -315 259 -164 143 -359 313 -433 378 -74 64 -176 152 -226 196 -50 44 -134 116 -185 160 -51 44 -119 103 -151 131 -31 29 -69 60 -83 69 -31 20 -50 51 -41 65 10 16 1417 13 1438 -2z"/> <path d="M11960 7883 c-23 -9 -60 -42 -240 -208 -335 -310 -509 -465 -523 -465 -9 0 -31 22 -51 49 -48 67 -156 155 -241 196 -318 154 -688 35 -861 -276 -242 -438 73 -969 576 -969 301 0 545 182 630 470 51 174 81 208 768 872 105 103 192 193 192 201 0 20 -82 91 -134 117 -41 19 -85 24 -116 13z"/> </g></svg>
